<?xml version="1.0" encoding="utf-8"?>
<!-- Generator: Adobe Illustrator 22.0.1, SVG Export Plug-In . SVG Version: 6.00 Build 0)  -->
<svg version="1.1" id="Layer_1" xmlns="http://www.w3.org/2000/svg" xmlns:xlink="http://www.w3.org/1999/xlink" x="0px" y="0px"
	 viewBox="0 0 255 70" style="enable-background:new 0 0 255 70;" xml:space="preserve">
<style type="text/css">
	.st0{fill:#FFFFFF;}
</style>
<g>
	<g>
		<path class="st0" d="M46.2,66.5c-0.1,0-0.1,0-0.2,0c-0.1,0-0.2,0-0.3,0L9.4,58.2c-5.9-1.3-7.4-6.1-7.3-8.5V16.4
			c0-1,0.8-1.9,1.9-1.9c1,0,1.9,0.8,1.9,1.9v33.4c0,0,0,0,0,0.1c0,0.4,0.1,3.8,4.4,4.8l35.4,8V22.9L9,14.7c0,0,0,0,0,0
			C6.8,14.1,3.9,12,4.6,8.1c0,0,0-0.1,0-0.1C5,6.4,6.4,3.8,11,3.6c2.1-0.1,4,0.4,4.3,0.4l39.5,8.9c1.1,0.2,2.7,1.2,2.7,3.4v42.2
			c0,1-0.8,1.9-1.9,1.9c-1,0-1.9-0.8-1.9-1.9v-42L14.5,7.6c0,0,0,0-0.1,0c-0.1,0-5.5-1.3-6.2,1.2c-0.1,0.7,0.1,1.2,0.6,1.7
			c0.4,0.3,1,0.5,1,0.5l37,8.3c1.7,0.4,2.5,1.8,2.4,3v41.1c0,0.1,0,0.1,0,0.2C49.1,65.5,47.6,66.5,46.2,66.5"/>
		<polygon class="st0" points="18.4,43.9 18.4,29.3 33,39 		"/>
	</g>
	<g>
		<g>
			<path class="st0" d="M86.9,16.6c1.2,0.4,2.3,0.9,3.2,1.6c0.9,0.7,1.7,1.6,2.4,2.7c0.6,1.1,1.1,2.3,1.3,3.7
				c0.1,0.8,0.2,1.5,0.2,2.3c0,0.8,0,1.6,0,2.4c0,0.8,0,1.6,0,2.4c0,0.8-0.1,1.6-0.2,2.3c-0.3,1.5-0.8,2.9-1.5,3.9
				c-0.8,1.1-1.7,2-2.8,2.7c-1.1,0.7-2.3,1.2-3.7,1.5c-1.4,0.3-2.7,0.5-4.1,0.5c-1.4,0-2.8-0.2-4.1-0.5c-1.4-0.3-2.6-0.8-3.7-1.5
				c-1.1-0.7-2.1-1.6-2.9-2.6c-0.8-1.1-1.3-2.4-1.5-3.9c-0.1-0.7-0.2-1.4-0.2-2.1c0-0.7,0-1.4,0-2.1V8.9c0-0.5,0.1-0.9,0.3-1.3
				c0.2-0.4,0.5-0.7,0.8-0.9c0.3-0.2,0.7-0.4,1.2-0.5C71.8,6.1,72.3,6,72.7,6c0.4,0,0.9,0.1,1.3,0.2c0.4,0.1,0.8,0.3,1.2,0.5
				c0.3,0.2,0.6,0.5,0.8,0.9c0.2,0.4,0.3,0.8,0.3,1.3v8.5c2.2-0.9,4.4-1.4,6.7-1.4C84.4,16,85.6,16.2,86.9,16.6 M84.6,35.8
				c0.7-0.3,1.2-0.8,1.5-1.4c0.3-0.6,0.5-1.3,0.6-2.2c0-0.9,0.1-1.8,0.1-2.9c0-1.1,0-2-0.1-2.9c0-0.9-0.2-1.6-0.6-2.2
				c-0.3-0.6-0.8-1.1-1.5-1.4c-0.7-0.3-1.7-0.5-3-0.5c-0.9,0-1.8,0.1-2.7,0.3c-0.9,0.2-1.7,0.4-2.6,0.7v6.5c0,1.1,0,2,0.1,2.8
				c0.1,0.8,0.3,1.5,0.6,2.1c0.3,0.6,0.9,1,1.6,1.3c0.7,0.3,1.7,0.4,2.9,0.4C82.9,36.3,83.9,36.1,84.6,35.8"/>
			<path class="st0" d="M100.5,39.9c-2-1.5-3.2-3.5-3.6-6c-0.1-0.7-0.2-1.4-0.2-2.1c0-0.7,0-1.6,0-2.5c0-0.9,0-1.8,0-2.5
				c0-0.7,0.1-1.4,0.2-2.1c0.4-2.5,1.6-4.5,3.6-6c2.3-1.7,5.1-2.5,8.7-2.5c3.5,0,6.4,0.8,8.6,2.5c2,1.5,3.2,3.5,3.6,6
				c0.1,0.8,0.2,1.5,0.2,2.3c0,0.8,0,1.6,0,2.3c0,0.8,0,1.5,0,2.3c0,0.8-0.1,1.6-0.2,2.3c-0.4,2.5-1.6,4.5-3.6,6
				c-2.2,1.7-5.1,2.5-8.6,2.5C105.6,42.5,102.7,41.6,100.5,39.9 M106.7,22.6c-0.6,0.2-1.1,0.5-1.5,0.8c-0.4,0.3-0.6,0.7-0.8,1
				c-0.2,0.4-0.3,0.7-0.3,1.1c-0.1,0.6-0.2,1.2-0.2,1.8c0,0.7,0,1.3,0,2c0,0.7,0,1.3,0,2c0,0.7,0.1,1.3,0.2,1.8
				c0,0.3,0.1,0.7,0.3,1.1c0.2,0.4,0.4,0.7,0.8,1c0.4,0.3,0.9,0.6,1.5,0.8c0.6,0.2,1.5,0.3,2.5,0.3c1,0,1.8-0.1,2.5-0.3
				c0.6-0.2,1.1-0.5,1.5-0.8c0.4-0.3,0.6-0.7,0.8-1c0.1-0.4,0.3-0.7,0.3-1.1c0.1-0.5,0.1-1.1,0.1-1.7c0-0.6,0-1.3,0-2.1s0-1.5,0-2.1
				c0-0.6-0.1-1.2-0.1-1.7c-0.1-0.3-0.2-0.7-0.3-1.1c-0.1-0.4-0.4-0.7-0.8-1c-0.4-0.3-0.8-0.6-1.5-0.8c-0.6-0.2-1.4-0.3-2.5-0.3
				C108.2,22.3,107.4,22.4,106.7,22.6"/>
			<path class="st0" d="M128.2,39.9c-2-1.5-3.2-3.5-3.6-6c-0.1-0.7-0.2-1.4-0.2-2.1c0-0.7,0-1.6,0-2.5c0-0.9,0-1.8,0-2.5
				c0-0.7,0.1-1.4,0.2-2.1c0.4-2.5,1.6-4.5,3.6-6c2.3-1.7,5.1-2.5,8.7-2.5c3.5,0,6.4,0.8,8.6,2.5c2,1.5,3.2,3.5,3.6,6
				c0.1,0.8,0.2,1.5,0.2,2.3c0,0.8,0,1.6,0,2.3c0,0.8,0,1.5,0,2.3c0,0.8-0.1,1.6-0.2,2.3c-0.4,2.5-1.6,4.5-3.6,6
				c-2.2,1.7-5.1,2.5-8.6,2.5C133.3,42.5,130.4,41.6,128.2,39.9 M134.4,22.6c-0.6,0.2-1.1,0.5-1.5,0.8c-0.4,0.3-0.6,0.7-0.8,1
				c-0.2,0.4-0.3,0.7-0.3,1.1c-0.1,0.6-0.2,1.2-0.2,1.8c0,0.7,0,1.3,0,2c0,0.7,0,1.3,0,2c0,0.7,0.1,1.3,0.2,1.8
				c0,0.3,0.1,0.7,0.3,1.1c0.2,0.4,0.4,0.7,0.8,1c0.4,0.3,0.9,0.6,1.5,0.8c0.6,0.2,1.5,0.3,2.5,0.3c1,0,1.8-0.1,2.4-0.3
				c0.6-0.2,1.1-0.5,1.5-0.8c0.4-0.3,0.6-0.7,0.8-1c0.1-0.4,0.3-0.7,0.3-1.1c0.1-0.5,0.1-1.1,0.1-1.7c0-0.6,0-1.3,0-2.1s0-1.5,0-2.1
				c0-0.6-0.1-1.2-0.1-1.7c-0.1-0.3-0.2-0.7-0.3-1.1c-0.1-0.4-0.4-0.7-0.8-1c-0.4-0.3-0.8-0.6-1.5-0.8c-0.6-0.2-1.4-0.3-2.4-0.3
				C135.8,22.3,135,22.4,134.4,22.6"/>
			<path class="st0" d="M169.4,29.9c0.6,0.5,1.2,1.1,1.8,1.6l5.2,5.4c0.6,0.6,0.8,1.2,0.8,2.1c0,1.1-0.4,1.9-1.2,2.5
				c-0.8,0.6-1.7,0.9-2.7,0.9c-1.1,0-2-0.4-2.8-1.2l-8.6-8.9c-0.2-0.2-0.4-0.4-0.6-0.5c-0.2-0.1-0.5-0.2-0.8-0.2H160v7.9
				c0,0.5-0.1,0.9-0.3,1.3c-0.2,0.4-0.5,0.7-0.8,0.9c-0.3,0.2-0.7,0.4-1.2,0.5c-0.4,0.1-0.9,0.2-1.3,0.2c-0.4,0-0.9-0.1-1.3-0.2
				c-0.4-0.1-0.8-0.3-1.2-0.5c-0.3-0.2-0.6-0.5-0.8-0.9c-0.2-0.4-0.3-0.8-0.3-1.3V8.9c0-0.5,0.1-0.9,0.3-1.3
				c0.2-0.4,0.5-0.7,0.8-0.9c0.3-0.2,0.7-0.4,1.2-0.5c0.4-0.1,0.9-0.2,1.3-0.2c0.4,0,0.9,0.1,1.3,0.2c0.4,0.1,0.8,0.3,1.2,0.5
				c0.3,0.2,0.6,0.5,0.8,0.9c0.2,0.4,0.3,0.8,0.3,1.3v16.9c0.5,0,0.9-0.1,1.2-0.4l1-0.9l7.6-7.2c0.8-0.8,1.7-1.1,2.7-1.1
				c1,0,2,0.3,2.8,0.8c0.8,0.5,1.2,1.4,1.2,2.5c0,0.4-0.1,0.7-0.2,1.1c-0.1,0.4-0.3,0.7-0.6,0.9l-4.3,4c-1.3,1.2-2.6,2.1-4.1,2.9
				C168.1,28.9,168.7,29.4,169.4,29.9"/>
			<path class="st0" d="M199.5,31.8c0,0.9-0.1,1.7-0.2,2.6c-0.2,1.4-0.6,2.6-1.2,3.6c-0.6,1-1.3,1.9-2.2,2.5
				c-0.9,0.7-1.9,1.2-3.1,1.5c-1.1,0.3-2.4,0.5-3.7,0.5c-1.4,0-2.6-0.2-3.8-0.5c-1.1-0.3-2.3-0.8-3.5-1.3V50c0,0.4-0.2,0.8-0.5,1
				c-0.3,0.3-0.7,0.4-1.1,0.4c-0.4,0-0.8-0.1-1.1-0.4c-0.3-0.3-0.5-0.6-0.5-1V28.7c0-0.8,0-1.5,0-2.3c0-0.8,0.1-1.6,0.2-2.3
				c0.4-2.7,1.5-4.7,3.4-6.1c1.9-1.3,4.1-2,6.8-2c1.3,0,2.5,0.2,3.7,0.5c1.1,0.3,2.2,0.8,3.1,1.5c0.9,0.7,1.6,1.5,2.2,2.5
				c0.6,1,1,2.2,1.2,3.6c0.1,0.8,0.2,1.7,0.2,2.6c0,0.9,0,1.7,0,2.6C199.5,30.1,199.5,31,199.5,31.8 M196.2,25.3
				c-0.1-1.3-0.4-2.4-0.9-3.3c-0.5-1-1.2-1.7-2.2-2.3c-1-0.6-2.3-0.8-4.1-0.8c-1.8,0-3.1,0.3-4.1,0.8c-1,0.6-1.7,1.3-2.2,2.3
				c-0.5,1-0.8,2.1-0.9,3.3c-0.1,1.2-0.1,2.5-0.1,3.9v8.6c1.1,0.6,2.3,1,3.6,1.3c1.3,0.3,2.5,0.5,3.7,0.5c1.8,0,3.1-0.3,4.1-0.8
				c1-0.6,1.7-1.3,2.2-2.3c0.5-1,0.8-2.1,0.9-3.3c0.1-1.3,0.1-2.6,0.1-3.9C196.4,27.9,196.3,26.6,196.2,25.3"/>
			<path class="st0" d="M205.6,6.4c0.3,0.3,0.5,0.6,0.5,1v25.3c0,0.8,0,1.6,0.1,2.2c0.1,0.6,0.2,1.2,0.4,1.7c0.2,0.5,0.5,1,0.9,1.5
				c0.4,0.5,0.9,1,1.5,1.6c0.4,0.4,0.6,0.8,0.6,1.3c0,0.4-0.2,0.7-0.5,0.9c-0.3,0.2-0.6,0.3-1,0.3c-0.5,0-0.9-0.1-1.3-0.4
				c-0.7-0.5-1.3-1.1-1.8-1.8c-0.5-0.7-0.9-1.5-1.2-2.3c-0.3-0.8-0.5-1.6-0.7-2.5c-0.1-0.8-0.2-1.7-0.2-2.5V7.5c0-0.4,0.2-0.8,0.5-1
				c0.3-0.3,0.7-0.4,1.1-0.4C204.9,6,205.3,6.2,205.6,6.4"/>
			<path class="st0" d="M224.8,16.6c1.3,0.4,2.5,1.1,3.5,2.1c0.6,0.6,1.1,1.2,1.4,1.9c0.4,0.7,0.6,1.4,0.8,2.2
				c0.2,0.8,0.3,1.5,0.3,2.4c0,0.8,0.1,1.6,0.1,2.4V31c0,0.8,0,1.6-0.1,2.4c0,0.8-0.2,1.6-0.3,2.4c-0.2,0.8-0.4,1.5-0.8,2.2
				c-0.4,0.7-0.8,1.3-1.4,1.9c-1,1-2.2,1.7-3.5,2.1c-1.3,0.4-2.6,0.6-4,0.6c-1.4,0-2.8-0.2-4-0.5c-1.3-0.3-2.4-0.8-3.3-1.5
				c-0.9-0.7-1.7-1.6-2.3-2.7c-0.6-1.1-0.8-2.4-0.8-3.9c0-1.6,0.3-2.9,0.8-4c0.6-1.1,1.3-2,2.3-2.7c0.9-0.7,2.1-1.2,3.3-1.5
				c1.3-0.3,2.6-0.5,4-0.5c1.2,0,2.4,0.1,3.5,0.2c1.2,0.2,2.3,0.4,3.5,0.6c-0.1-2.4-0.7-4.1-1.7-5.3s-2.8-1.8-5.3-1.8
				c-1.2,0-2.4,0.1-3.5,0.3c-1.1,0.2-2.2,0.4-3.4,0.7c-0.3,0.1-0.4,0.1-0.5,0.1c-0.4,0-0.8-0.1-1.1-0.4c-0.3-0.3-0.5-0.6-0.5-1.1
				c0-0.4,0.1-0.7,0.3-0.9c0.2-0.2,0.5-0.4,0.8-0.5c1.2-0.5,2.5-0.8,3.8-0.9c1.3-0.1,2.6-0.2,3.9-0.2
				C222.2,16,223.5,16.2,224.8,16.6 M224.4,39c0.9-0.4,1.6-1,2.1-1.8c0.5-0.8,0.8-1.7,1-2.7c0.2-1.1,0.2-2.2,0.2-3.6v-2.3
				c-2.4-0.5-4.7-0.7-7-0.7c-1,0-2,0.1-2.9,0.3c-0.9,0.2-1.7,0.5-2.3,0.9c-0.7,0.4-1.2,1-1.5,1.8c-0.4,0.7-0.6,1.7-0.6,2.8
				c0,1.1,0.2,2,0.6,2.8c0.4,0.8,0.9,1.3,1.6,1.8c0.7,0.4,1.4,0.8,2.3,1c0.9,0.2,1.8,0.3,2.8,0.3C222.3,39.7,223.5,39.4,224.4,39"/>
			<path class="st0" d="M233.8,48.6c0.3-0.2,0.7-0.4,1.1-0.4c0.4,0,0.8-0.1,1.2-0.1c0.4-0.1,0.8-0.2,1.1-0.3
				c0.7-0.3,1.2-0.7,1.7-1.2c0.5-0.5,0.9-1.1,1.3-1.8c0.4-0.7,0.7-1.3,1-2.1c0.3-0.7,0.5-1.4,0.7-2l0.3-1c-0.7-0.4-1.3-0.9-1.9-1.5
				c-0.5-0.6-0.9-1.3-1.3-2.1l-7.5-18c-0.1-0.2-0.1-0.4-0.1-0.5c0-0.5,0.2-0.8,0.5-1c0.3-0.2,0.7-0.3,1.1-0.3c0.8,0,1.3,0.3,1.6,1
				l7.5,17.9c0,0.1,0.1,0.2,0.2,0.4c0.1,0.2,0.2,0.4,0.3,0.6c0.1,0.2,0.2,0.4,0.3,0.5c0.1,0.1,0.2,0.2,0.2,0.2c0.1,0,0.1,0,0.1-0.1
				l6.5-19.4c0.2-0.8,0.7-1.1,1.5-1.1c0.4,0,0.8,0.1,1.1,0.4c0.3,0.2,0.5,0.6,0.5,1.1c0,0.1-0.1,0.4-0.3,1.1l-0.8,2.6l-1.2,3.6
				l-1.4,4.1l-1.4,4.2l-1.2,3.8l-1,2.9c-0.3,0.8-0.4,1.3-0.5,1.6c-0.4,1.2-0.9,2.4-1.4,3.6s-1.2,2.2-2,3.1c-0.8,0.9-1.7,1.6-2.8,2.2
				c-1.1,0.5-2.4,0.8-3.9,0.8c-0.4,0-0.7-0.1-1.1-0.4c-0.4-0.2-0.5-0.6-0.5-1C233.4,49.2,233.5,48.9,233.8,48.6"/>
		</g>
		<g>
			<path class="st0" d="M90.2,61.9c-0.4-0.3-0.6-0.7-0.7-1.2c0-0.1,0-0.3,0-0.5c0-0.2,0-0.3,0-0.5c0-0.2,0-0.4,0-0.5
				c0-0.2,0-0.3,0-0.5c0.1-0.5,0.3-0.9,0.7-1.2c0.4-0.3,0.9-0.4,1.5-0.4c0.6,0,1.1,0.1,1.8,0.4c0.2,0.1,0.2,0.2,0.2,0.4
				c0,0.1,0,0.1,0,0.2c-0.1,0.2-0.2,0.2-0.4,0.2c-0.1,0-0.2,0-0.2-0.1c-0.3-0.1-0.5-0.2-0.7-0.3c-0.2-0.1-0.4-0.1-0.6-0.1
				c-0.8,0-1.2,0.3-1.3,1c0,0.1,0,0.3,0,0.4c0,0.2,0,0.3,0,0.5c0,0.1,0,0.3,0,0.5c0,0.2,0,0.3,0,0.4c0.1,0.6,0.5,1,1.3,1
				c0.2,0,0.4,0,0.6-0.1c0.2-0.1,0.5-0.2,0.7-0.3c0.1,0,0.2-0.1,0.2-0.1c0.2,0,0.3,0.1,0.4,0.2c0,0.1,0,0.1,0,0.2
				c0,0.1,0,0.2-0.1,0.2c0,0.1-0.1,0.1-0.2,0.1c-0.6,0.3-1.2,0.4-1.8,0.4C91.1,62.3,90.6,62.2,90.2,61.9z"/>
			<path class="st0" d="M96.7,61.9c-0.4-0.3-0.6-0.7-0.7-1.2c0-0.1,0-0.3,0-0.5c0-0.2,0-0.3,0-0.5c0-0.2,0-0.4,0-0.5
				c0-0.2,0-0.3,0-0.5c0.1-0.5,0.3-0.9,0.7-1.2c0.4-0.3,0.9-0.4,1.5-0.4c0.6,0,1.1,0.1,1.5,0.4c0.4,0.3,0.6,0.7,0.7,1.2
				c0,0.2,0,0.3,0,0.5c0,0.2,0,0.3,0,0.5s0,0.3,0,0.5c0,0.2,0,0.3,0,0.5c-0.1,0.5-0.3,0.9-0.7,1.2c-0.4,0.3-0.9,0.4-1.5,0.4
				C97.6,62.3,97.1,62.2,96.7,61.9z M96.9,58.7c0,0.1,0,0.3,0,0.4c0,0.2,0,0.3,0,0.5c0,0.1,0,0.3,0,0.5c0,0.2,0,0.3,0,0.4
				c0.1,0.6,0.5,1,1.3,1c0.8,0,1.2-0.3,1.3-1c0-0.1,0-0.3,0-0.4c0-0.1,0-0.3,0-0.5s0-0.3,0-0.5c0-0.1,0-0.3,0-0.4
				c-0.1-0.6-0.5-1-1.3-1C97.4,57.8,97,58.1,96.9,58.7z"/>
			<path class="st0" d="M106.5,62.2c-0.1-0.1-0.1-0.2-0.1-0.3v-2.6c0-0.3,0-0.6-0.1-0.8c0-0.2-0.1-0.3-0.2-0.4
				c-0.2-0.2-0.5-0.3-1-0.3c-0.4,0-0.8,0.1-1,0.3c-0.1,0.1-0.2,0.3-0.2,0.4c0,0.2-0.1,0.4-0.1,0.8v2.6c0,0.1,0,0.2-0.1,0.3
				c-0.1,0.1-0.2,0.1-0.3,0.1c-0.1,0-0.2,0-0.3-0.1c-0.1-0.1-0.1-0.2-0.1-0.3v-2.6c0-0.4,0-0.7,0.1-1c0.1-0.3,0.2-0.6,0.5-0.8
				c0.4-0.4,0.9-0.5,1.6-0.5c0.7,0,1.2,0.2,1.6,0.5c0.2,0.2,0.4,0.5,0.5,0.8c0.1,0.3,0.1,0.6,0.1,1v2.6c0,0.1,0,0.2-0.1,0.3
				c-0.1,0.1-0.2,0.1-0.3,0.1C106.7,62.3,106.6,62.3,106.5,62.2z"/>
			<path class="st0" d="M114.1,58.3c0.1,0.3,0.1,0.6,0.1,1v2.6c0,0.1,0,0.2-0.1,0.3c-0.1,0.1-0.2,0.1-0.3,0.1c-0.1,0-0.2,0-0.3-0.1
				c-0.1-0.1-0.1-0.2-0.1-0.3v-2.6c0-0.3,0-0.6-0.1-0.8c0-0.2-0.1-0.3-0.2-0.4c-0.2-0.2-0.5-0.3-1-0.3c-0.2,0-0.4,0-0.6,0.1
				c-0.2,0-0.5,0.1-0.7,0.2v3.9c0,0.1,0,0.2-0.1,0.3c-0.1,0.1-0.2,0.1-0.3,0.1s-0.2,0-0.3-0.1c-0.1-0.1-0.1-0.2-0.1-0.3v-6.6
				c0-0.1,0-0.2,0.1-0.3c0.1-0.1,0.2-0.1,0.3-0.1s0.2,0,0.3,0.1c0.1,0.1,0.1,0.2,0.1,0.3v2c0.2-0.1,0.4-0.2,0.7-0.2
				c0.2-0.1,0.5-0.1,0.7-0.1c0.7,0,1.2,0.2,1.6,0.5C113.9,57.7,114.1,58,114.1,58.3z"/>
			<path class="st0" d="M120.5,61.1c0.2,0,0.3,0.1,0.4,0.2c0,0.1,0,0.1,0,0.2c0,0.1,0,0.2-0.1,0.2c0,0.1-0.1,0.1-0.2,0.1
				c-0.6,0.3-1.2,0.4-1.8,0.4c-0.6,0-1.1-0.1-1.5-0.4c-0.4-0.3-0.6-0.7-0.7-1.2c0-0.1,0-0.3,0-0.5c0-0.2,0-0.3,0-0.5
				c0-0.2,0-0.4,0-0.5c0-0.2,0-0.3,0-0.5c0.1-0.5,0.3-0.9,0.7-1.2c0.4-0.3,0.9-0.4,1.5-0.4c0.6,0,1.1,0.1,1.5,0.4
				c0.4,0.3,0.6,0.7,0.7,1.2c0,0.1,0,0.2,0,0.3c0,0.4-0.1,0.6-0.3,0.8c-0.2,0.2-0.4,0.2-0.8,0.2h-2.5c0,0.1,0,0.2,0,0.3
				c0,0.1,0,0.2,0,0.3c0.1,0.6,0.5,1,1.3,1c0.2,0,0.4,0,0.6-0.1c0.2-0.1,0.5-0.2,0.7-0.3C120.4,61.1,120.4,61.1,120.5,61.1z
				 M117.6,59.2h2.4c0.1,0,0.1,0,0.1,0c0,0,0-0.1,0-0.2v-0.1c0,0,0-0.1,0-0.1c-0.1-0.6-0.5-1-1.3-1c-0.8,0-1.2,0.3-1.3,1
				C117.6,58.9,117.6,59,117.6,59.2z"/>
			<path class="st0" d="M124.2,61.9c-0.4-0.3-0.6-0.7-0.7-1.2c0-0.1,0-0.3,0-0.5c0-0.2,0-0.3,0-0.5c0-0.2,0-0.4,0-0.5
				c0-0.2,0-0.3,0-0.5c0.1-0.5,0.3-0.9,0.7-1.2c0.4-0.3,0.9-0.4,1.5-0.4c0.6,0,1.1,0.1,1.8,0.4c0.2,0.1,0.2,0.2,0.2,0.4
				c0,0.1,0,0.1,0,0.2c-0.1,0.2-0.2,0.2-0.4,0.2c-0.1,0-0.2,0-0.2-0.1c-0.3-0.1-0.5-0.2-0.7-0.3c-0.2-0.1-0.4-0.1-0.6-0.1
				c-0.8,0-1.2,0.3-1.3,1c0,0.1,0,0.3,0,0.4c0,0.2,0,0.3,0,0.5c0,0.1,0,0.3,0,0.5c0,0.2,0,0.3,0,0.4c0.1,0.6,0.5,1,1.3,1
				c0.2,0,0.4,0,0.6-0.1c0.2-0.1,0.5-0.2,0.7-0.3c0.1,0,0.2-0.1,0.2-0.1c0.2,0,0.3,0.1,0.4,0.2c0,0.1,0,0.1,0,0.2
				c0,0.1,0,0.2-0.1,0.2c0,0.1-0.1,0.1-0.2,0.1c-0.6,0.3-1.2,0.4-1.8,0.4C125,62.3,124.5,62.2,124.2,61.9z"/>
			<path class="st0" d="M130.9,55.4c0.1,0.1,0.1,0.2,0.1,0.3c0,0.1,0,0.3-0.1,0.4c-0.1,0.1-0.2,0.1-0.4,0.1c-0.1,0-0.2,0-0.3-0.1
				s-0.1-0.2-0.1-0.4c0-0.1,0-0.2,0.1-0.3c0.1-0.1,0.2-0.1,0.3-0.1C130.7,55.3,130.8,55.3,130.9,55.4z M130.2,62.2
				c-0.1-0.1-0.1-0.2-0.1-0.3v-4.6c0-0.1,0-0.2,0.1-0.3c0.1-0.1,0.2-0.1,0.3-0.1c0.1,0,0.2,0,0.3,0.1c0.1,0.1,0.1,0.2,0.1,0.3v4.6
				c0,0.1,0,0.2-0.1,0.3c-0.1,0.1-0.2,0.1-0.3,0.1C130.4,62.3,130.3,62.3,130.2,62.2z"/>
			<path class="st0" d="M140,58.7v3.3c0,0.1,0,0.2-0.1,0.3c-0.1,0.1-0.2,0.1-0.3,0.1c-0.1,0-0.2,0-0.3-0.1c-0.1-0.1-0.1-0.2-0.1-0.3
				v-3.3c0-0.1,0-0.1,0-0.2c0-0.1-0.1-0.2-0.1-0.3c-0.1-0.1-0.2-0.2-0.3-0.2c-0.1-0.1-0.3-0.1-0.5-0.1c-0.2,0-0.4,0-0.5,0.1
				c-0.1,0.1-0.2,0.1-0.3,0.2c-0.1,0.1-0.1,0.2-0.1,0.3c0,0.1,0,0.2,0,0.2v3.3c0,0.1,0,0.2-0.1,0.3c-0.1,0.1-0.2,0.1-0.3,0.1
				c-0.1,0-0.2,0-0.3-0.1c-0.1-0.1-0.1-0.2-0.1-0.3v-3.3c0-0.1,0-0.1,0-0.2c0-0.1-0.1-0.2-0.1-0.3c-0.1-0.1-0.2-0.2-0.3-0.2
				c-0.1-0.1-0.3-0.1-0.5-0.1c-0.2,0-0.4,0-0.5,0.1c-0.1,0.1-0.2,0.1-0.3,0.2c-0.1,0.1-0.1,0.2-0.1,0.3c0,0.1,0,0.2,0,0.2v3.3
				c0,0.1,0,0.2-0.1,0.3c-0.1,0.1-0.2,0.1-0.3,0.1c-0.1,0-0.2,0-0.3-0.1c-0.1-0.1-0.1-0.2-0.1-0.3v-3.3c0-0.2,0-0.5,0.1-0.7
				c0.1-0.2,0.2-0.4,0.3-0.5c0.4-0.3,0.8-0.5,1.4-0.5c0.3,0,0.6,0.1,0.8,0.2c0.2,0.1,0.4,0.2,0.6,0.4c0.2-0.2,0.3-0.3,0.6-0.4
				c0.2-0.1,0.5-0.2,0.8-0.2c0.6,0,1,0.2,1.4,0.5C139.8,57.8,140,58.2,140,58.7z"/>
			<path class="st0" d="M146.2,61.1c0.2,0,0.3,0.1,0.4,0.2c0,0.1,0,0.1,0,0.2c0,0.1,0,0.2-0.1,0.2c0,0.1-0.1,0.1-0.2,0.1
				c-0.6,0.3-1.2,0.4-1.8,0.4c-0.6,0-1.1-0.1-1.5-0.4c-0.4-0.3-0.6-0.7-0.7-1.2c0-0.1,0-0.3,0-0.5c0-0.2,0-0.3,0-0.5
				c0-0.2,0-0.4,0-0.5c0-0.2,0-0.3,0-0.5c0.1-0.5,0.3-0.9,0.7-1.2c0.4-0.3,0.9-0.4,1.5-0.4c0.6,0,1.1,0.1,1.5,0.4
				c0.4,0.3,0.6,0.7,0.7,1.2c0,0.1,0,0.2,0,0.3c0,0.4-0.1,0.6-0.3,0.8c-0.2,0.2-0.4,0.2-0.8,0.2h-2.5c0,0.1,0,0.2,0,0.3
				c0,0.1,0,0.2,0,0.3c0.1,0.6,0.5,1,1.3,1c0.2,0,0.4,0,0.6-0.1c0.2-0.1,0.5-0.2,0.7-0.3C146.1,61.1,146.1,61.1,146.2,61.1z
				 M143.3,59.2h2.4c0.1,0,0.1,0,0.1,0c0,0,0-0.1,0-0.2v-0.1c0,0,0-0.1,0-0.1c-0.1-0.6-0.5-1-1.3-1c-0.8,0-1.2,0.3-1.3,1
				C143.3,58.9,143.3,59,143.3,59.2z"/>
			<path class="st0" d="M152.9,62.2c-0.1-0.1-0.1-0.2-0.1-0.3v-2.6c0-0.3,0-0.6-0.1-0.8c0-0.2-0.1-0.3-0.2-0.4
				c-0.2-0.2-0.5-0.3-1-0.3c-0.4,0-0.8,0.1-1,0.3c-0.1,0.1-0.2,0.3-0.2,0.4c0,0.2-0.1,0.4-0.1,0.8v2.6c0,0.1,0,0.2-0.1,0.3
				c-0.1,0.1-0.2,0.1-0.3,0.1c-0.1,0-0.2,0-0.3-0.1c-0.1-0.1-0.1-0.2-0.1-0.3v-2.6c0-0.4,0-0.7,0.1-1c0.1-0.3,0.2-0.6,0.5-0.8
				c0.4-0.4,0.9-0.5,1.6-0.5c0.7,0,1.2,0.2,1.6,0.5c0.2,0.2,0.4,0.5,0.5,0.8c0.1,0.3,0.1,0.6,0.1,1v2.6c0,0.1,0,0.2-0.1,0.3
				c-0.1,0.1-0.2,0.1-0.3,0.1C153.1,62.3,153,62.3,152.9,62.2z"/>
			<path class="st0" d="M159.6,61.8c0,0.2-0.1,0.3-0.3,0.4c-0.3,0.1-0.6,0.2-1,0.2c-0.7,0-1.2-0.2-1.6-0.5c-0.2-0.2-0.4-0.5-0.5-0.8
				c-0.1-0.3-0.1-0.6-0.1-1v-4.3c0-0.1,0-0.2,0.1-0.3c0.1-0.1,0.2-0.1,0.3-0.1c0.1,0,0.2,0,0.3,0.1c0.1,0.1,0.1,0.2,0.1,0.3V57h2.1
				c0.1,0,0.2,0,0.3,0.1c0.1,0.1,0.1,0.2,0.1,0.3c0,0.1,0,0.2-0.1,0.3c-0.1,0.1-0.2,0.1-0.3,0.1h-2.1V60c0,0.3,0,0.6,0.1,0.8
				c0,0.2,0.1,0.3,0.2,0.4c0.1,0.1,0.3,0.2,0.4,0.2c0.2,0,0.3,0.1,0.5,0.1c0.1,0,0.2,0,0.3,0c0.1,0,0.2-0.1,0.4-0.1
				c0.1,0,0.1,0,0.2,0c0.1,0,0.2,0,0.2,0.1c0.1,0,0.1,0.1,0.1,0.2C159.6,61.7,159.6,61.7,159.6,61.8z"/>
			<path class="st0" d="M162.3,61.9c-0.4-0.3-0.6-0.7-0.7-1.2c0-0.1,0-0.3,0-0.5c0-0.2,0-0.3,0-0.5c0-0.2,0-0.4,0-0.5
				c0-0.2,0-0.3,0-0.5c0.1-0.5,0.3-0.9,0.7-1.2c0.4-0.3,0.9-0.4,1.5-0.4c0.6,0,1.1,0.1,1.5,0.4c0.4,0.3,0.6,0.7,0.7,1.2
				c0,0.2,0,0.3,0,0.5c0,0.2,0,0.3,0,0.5s0,0.3,0,0.5c0,0.2,0,0.3,0,0.5c-0.1,0.5-0.3,0.9-0.7,1.2c-0.4,0.3-0.9,0.4-1.5,0.4
				C163.2,62.3,162.7,62.2,162.3,61.9z M162.5,58.7c0,0.1,0,0.3,0,0.4c0,0.2,0,0.3,0,0.5c0,0.1,0,0.3,0,0.5c0,0.2,0,0.3,0,0.4
				c0.1,0.6,0.5,1,1.3,1c0.8,0,1.2-0.3,1.3-1c0-0.1,0-0.3,0-0.4c0-0.1,0-0.3,0-0.5s0-0.3,0-0.5c0-0.1,0-0.3,0-0.4
				c-0.1-0.6-0.5-1-1.3-1C163,57.8,162.6,58.1,162.5,58.7z"/>
			<path class="st0" d="M172.7,62.3c-0.3-0.1-0.5-0.1-0.7-0.2c-0.1,0-0.2-0.1-0.2-0.1c-0.1-0.1-0.1-0.2-0.1-0.3c0,0,0,0,0-0.1
				c0,0,0,0,0-0.1c0-0.1,0.1-0.2,0.1-0.2c0.1-0.1,0.2-0.1,0.3-0.1c0,0,0.1,0,0.1,0c0,0,0.1,0,0.1,0c0.2,0.1,0.4,0.1,0.6,0.2
				c0.2,0,0.5,0.1,0.7,0.1c0.4,0,0.7-0.1,0.8-0.2c0.1-0.1,0.2-0.3,0.2-0.5c0-0.2-0.1-0.3-0.2-0.4c-0.2-0.1-0.4-0.2-0.9-0.3
				c-0.6-0.1-1.1-0.3-1.4-0.6c-0.3-0.3-0.5-0.6-0.5-1.1c0-0.5,0.2-0.8,0.5-1.1c0.3-0.3,0.8-0.4,1.5-0.4c0.2,0,0.5,0,0.7,0
				c0.2,0,0.4,0.1,0.6,0.1c0.1,0,0.2,0.1,0.2,0.1c0.1,0.1,0.1,0.2,0.1,0.3c0,0,0,0,0,0c0,0,0,0,0,0.1c0,0.1-0.1,0.2-0.2,0.2
				c-0.1,0-0.2,0.1-0.3,0.1h-0.1c0,0-0.1,0-0.1,0c-0.2,0-0.3-0.1-0.5-0.1c-0.2,0-0.3,0-0.5,0c-0.7,0-1.1,0.2-1.1,0.7
				c0,0.2,0.1,0.3,0.3,0.5c0.2,0.1,0.5,0.2,0.8,0.3c0.6,0.1,1.1,0.3,1.4,0.5c0.3,0.2,0.5,0.6,0.5,1.1c0,0.2,0,0.4-0.1,0.6
				c-0.1,0.2-0.2,0.4-0.3,0.5c-0.2,0.1-0.4,0.3-0.6,0.4c-0.2,0.1-0.6,0.1-0.9,0.1C173.3,62.3,173,62.3,172.7,62.3z"/>
			<path class="st0" d="M181.6,61.1c0.2,0,0.3,0.1,0.4,0.2c0,0.1,0.1,0.1,0.1,0.2c0,0.1,0,0.2-0.1,0.2c0,0.1-0.1,0.1-0.2,0.1
				c-0.6,0.3-1.2,0.4-1.8,0.4c-0.6,0-1.1-0.1-1.5-0.4c-0.4-0.3-0.6-0.7-0.7-1.2c0-0.1,0-0.3,0-0.5c0-0.2,0-0.3,0-0.5
				c0-0.2,0-0.4,0-0.5c0-0.2,0-0.3,0-0.5c0.1-0.5,0.3-0.9,0.7-1.2c0.4-0.3,0.9-0.4,1.5-0.4c0.6,0,1.1,0.1,1.5,0.4
				c0.4,0.3,0.6,0.7,0.7,1.2c0,0.1,0,0.2,0,0.3c0,0.4-0.1,0.6-0.3,0.8c-0.2,0.2-0.4,0.2-0.8,0.2h-2.5c0,0.1,0,0.2,0,0.3
				c0,0.1,0,0.2,0,0.3c0.1,0.6,0.5,1,1.3,1c0.2,0,0.4,0,0.6-0.1c0.2-0.1,0.5-0.2,0.7-0.3C181.4,61.1,181.5,61.1,181.6,61.1z
				 M178.6,59.2h2.4c0.1,0,0.1,0,0.1,0c0,0,0-0.1,0-0.2v-0.1c0,0,0-0.1,0-0.1c-0.1-0.6-0.5-1-1.3-1c-0.8,0-1.2,0.3-1.3,1
				C178.7,58.9,178.6,59,178.6,59.2z"/>
			<path class="st0" d="M191,58.7v3.3c0,0.1,0,0.2-0.1,0.3c-0.1,0.1-0.2,0.1-0.3,0.1c-0.1,0-0.2,0-0.3-0.1c-0.1-0.1-0.1-0.2-0.1-0.3
				v-3.3c0-0.1,0-0.1,0-0.2c0-0.1-0.1-0.2-0.1-0.3c-0.1-0.1-0.2-0.2-0.3-0.2c-0.1-0.1-0.3-0.1-0.5-0.1c-0.2,0-0.4,0-0.5,0.1
				c-0.1,0.1-0.2,0.1-0.3,0.2c-0.1,0.1-0.1,0.2-0.1,0.3c0,0.1,0,0.2,0,0.2v3.3c0,0.1,0,0.2-0.1,0.3c-0.1,0.1-0.2,0.1-0.3,0.1
				c-0.1,0-0.2,0-0.3-0.1c-0.1-0.1-0.1-0.2-0.1-0.3v-3.3c0-0.1,0-0.1,0-0.2c0-0.1-0.1-0.2-0.1-0.3c-0.1-0.1-0.2-0.2-0.3-0.2
				c-0.1-0.1-0.3-0.1-0.5-0.1c-0.2,0-0.4,0-0.5,0.1c-0.1,0.1-0.2,0.1-0.3,0.2c-0.1,0.1-0.1,0.2-0.1,0.3c0,0.1,0,0.2,0,0.2v3.3
				c0,0.1,0,0.2-0.1,0.3c-0.1,0.1-0.2,0.1-0.3,0.1c-0.1,0-0.2,0-0.3-0.1c-0.1-0.1-0.1-0.2-0.1-0.3v-3.3c0-0.2,0-0.5,0.1-0.7
				c0.1-0.2,0.2-0.4,0.3-0.5c0.4-0.3,0.8-0.5,1.4-0.5c0.3,0,0.6,0.1,0.8,0.2c0.2,0.1,0.4,0.2,0.6,0.4c0.2-0.2,0.3-0.3,0.6-0.4
				c0.2-0.1,0.5-0.2,0.8-0.2c0.6,0,1,0.2,1.4,0.5C190.9,57.8,191,58.2,191,58.7z"/>
			<path class="st0" d="M197.9,62.2c-0.3-0.2-0.5-0.5-0.7-0.7c-0.1-0.3-0.2-0.6-0.2-1v-5.2c0-0.1,0-0.2,0.1-0.3
				c0.1-0.1,0.2-0.1,0.3-0.1c0.1,0,0.2,0,0.3,0.1c0.1,0.1,0.1,0.2,0.1,0.3v5.2c0,0.1,0,0.3,0,0.4c0,0.1,0.1,0.2,0.1,0.3
				c0,0.1,0.1,0.1,0.2,0.2c0.1,0.1,0.1,0.1,0.2,0.2c0.1,0.1,0.2,0.2,0.2,0.3c0,0.1,0,0.2-0.1,0.3c-0.1,0.1-0.2,0.2-0.3,0.2
				C198.1,62.3,198,62.3,197.9,62.2z"/>
			<path class="st0" d="M201.6,55.4c0.1,0.1,0.1,0.2,0.1,0.3c0,0.1,0,0.3-0.1,0.4c-0.1,0.1-0.2,0.1-0.4,0.1c-0.1,0-0.2,0-0.3-0.1
				s-0.1-0.2-0.1-0.4c0-0.1,0-0.2,0.1-0.3c0.1-0.1,0.2-0.1,0.3-0.1C201.4,55.3,201.5,55.3,201.6,55.4z M200.9,62.2
				c-0.1-0.1-0.1-0.2-0.1-0.3v-4.6c0-0.1,0-0.2,0.1-0.3c0.1-0.1,0.2-0.1,0.3-0.1c0.1,0,0.2,0,0.3,0.1c0.1,0.1,0.1,0.2,0.1,0.3v4.6
				c0,0.1,0,0.2-0.1,0.3c-0.1,0.1-0.2,0.1-0.3,0.1C201.1,62.3,201,62.3,200.9,62.2z"/>
			<path class="st0" d="M210.7,58.7v3.3c0,0.1,0,0.2-0.1,0.3c-0.1,0.1-0.2,0.1-0.3,0.1c-0.1,0-0.2,0-0.3-0.1
				c-0.1-0.1-0.1-0.2-0.1-0.3v-3.3c0-0.1,0-0.1,0-0.2c0-0.1-0.1-0.2-0.1-0.3c-0.1-0.1-0.2-0.2-0.3-0.2c-0.1-0.1-0.3-0.1-0.5-0.1
				c-0.2,0-0.4,0-0.5,0.1c-0.1,0.1-0.2,0.1-0.3,0.2c-0.1,0.1-0.1,0.2-0.1,0.3c0,0.1,0,0.2,0,0.2v3.3c0,0.1,0,0.2-0.1,0.3
				c-0.1,0.1-0.2,0.1-0.3,0.1c-0.1,0-0.2,0-0.3-0.1c-0.1-0.1-0.1-0.2-0.1-0.3v-3.3c0-0.1,0-0.1,0-0.2c0-0.1-0.1-0.2-0.1-0.3
				c-0.1-0.1-0.2-0.2-0.3-0.2c-0.1-0.1-0.3-0.1-0.5-0.1c-0.2,0-0.4,0-0.5,0.1c-0.1,0.1-0.2,0.1-0.3,0.2c-0.1,0.1-0.1,0.2-0.1,0.3
				c0,0.1,0,0.2,0,0.2v3.3c0,0.1,0,0.2-0.1,0.3c-0.1,0.1-0.2,0.1-0.3,0.1c-0.1,0-0.2,0-0.3-0.1c-0.1-0.1-0.1-0.2-0.1-0.3v-3.3
				c0-0.2,0-0.5,0.1-0.7c0.1-0.2,0.2-0.4,0.3-0.5c0.4-0.3,0.8-0.5,1.4-0.5c0.3,0,0.6,0.1,0.8,0.2c0.2,0.1,0.4,0.2,0.6,0.4
				c0.2-0.2,0.3-0.3,0.6-0.4c0.2-0.1,0.5-0.2,0.8-0.2c0.6,0,1,0.2,1.4,0.5C210.5,57.8,210.7,58.2,210.7,58.7z"/>
			<path class="st0" d="M214,55.4c0.1,0.1,0.1,0.2,0.1,0.3c0,0.1,0,0.3-0.1,0.4s-0.2,0.1-0.4,0.1c-0.1,0-0.2,0-0.3-0.1
				c-0.1-0.1-0.1-0.2-0.1-0.4c0-0.1,0-0.2,0.1-0.3c0.1-0.1,0.2-0.1,0.3-0.1C213.8,55.3,213.9,55.3,214,55.4z M213.3,62.2
				c-0.1-0.1-0.1-0.2-0.1-0.3v-4.6c0-0.1,0-0.2,0.1-0.3c0.1-0.1,0.2-0.1,0.3-0.1c0.1,0,0.2,0,0.3,0.1c0.1,0.1,0.1,0.2,0.1,0.3v4.6
				c0,0.1,0,0.2-0.1,0.3c-0.1,0.1-0.2,0.1-0.3,0.1C213.5,62.3,213.4,62.3,213.3,62.2z"/>
			<path class="st0" d="M220.1,61.8c0,0.2-0.1,0.3-0.3,0.4c-0.3,0.1-0.6,0.2-1,0.2c-0.7,0-1.2-0.2-1.6-0.5c-0.2-0.2-0.4-0.5-0.5-0.8
				c-0.1-0.3-0.1-0.6-0.1-1v-4.3c0-0.1,0-0.2,0.1-0.3c0.1-0.1,0.2-0.1,0.3-0.1c0.1,0,0.2,0,0.3,0.1c0.1,0.1,0.1,0.2,0.1,0.3V57h2.1
				c0.1,0,0.2,0,0.3,0.1c0.1,0.1,0.1,0.2,0.1,0.3c0,0.1,0,0.2-0.1,0.3c-0.1,0.1-0.2,0.1-0.3,0.1h-2.1V60c0,0.3,0,0.6,0.1,0.8
				c0,0.2,0.1,0.3,0.2,0.4c0.1,0.1,0.3,0.2,0.4,0.2c0.2,0,0.3,0.1,0.5,0.1c0.1,0,0.2,0,0.3,0c0.1,0,0.2-0.1,0.4-0.1
				c0.1,0,0.1,0,0.2,0c0.1,0,0.2,0,0.2,0.1c0.1,0,0.1,0.1,0.1,0.2C220.1,61.7,220.1,61.7,220.1,61.8z"/>
			<path class="st0" d="M225.9,61.1c0.2,0,0.3,0.1,0.4,0.2c0,0.1,0.1,0.1,0.1,0.2c0,0.1,0,0.2-0.1,0.2c0,0.1-0.1,0.1-0.2,0.1
				c-0.6,0.3-1.2,0.4-1.8,0.4c-0.6,0-1.1-0.1-1.5-0.4c-0.4-0.3-0.6-0.7-0.7-1.2c0-0.1,0-0.3,0-0.5s0-0.3,0-0.5c0-0.2,0-0.4,0-0.5
				c0-0.2,0-0.3,0-0.5c0.1-0.5,0.3-0.9,0.7-1.2c0.4-0.3,0.9-0.4,1.5-0.4c0.6,0,1.1,0.1,1.5,0.4c0.4,0.3,0.6,0.7,0.7,1.2
				c0,0.1,0,0.2,0,0.3c0,0.4-0.1,0.6-0.3,0.8c-0.2,0.2-0.4,0.2-0.8,0.2h-2.5c0,0.1,0,0.2,0,0.3c0,0.1,0,0.2,0,0.3
				c0.1,0.6,0.5,1,1.3,1c0.2,0,0.4,0,0.6-0.1c0.2-0.1,0.5-0.2,0.7-0.3C225.7,61.1,225.8,61.1,225.9,61.1z M222.9,59.2h2.4
				c0.1,0,0.1,0,0.1,0c0,0,0-0.1,0-0.2v-0.1c0,0,0-0.1,0-0.1c-0.1-0.6-0.5-1-1.3-1c-0.8,0-1.2,0.3-1.3,1
				C222.9,58.9,222.9,59,222.9,59.2z"/>
			<path class="st0" d="M229.7,62.3c-0.3-0.1-0.5-0.1-0.7-0.2c-0.1,0-0.2-0.1-0.2-0.1c-0.1-0.1-0.1-0.2-0.1-0.3c0,0,0,0,0-0.1
				c0,0,0,0,0-0.1c0-0.1,0.1-0.2,0.1-0.2c0.1-0.1,0.2-0.1,0.3-0.1c0,0,0.1,0,0.1,0c0,0,0.1,0,0.1,0c0.2,0.1,0.4,0.1,0.6,0.2
				c0.2,0,0.5,0.1,0.7,0.1c0.4,0,0.7-0.1,0.8-0.2c0.1-0.1,0.2-0.3,0.2-0.5c0-0.2-0.1-0.3-0.2-0.4c-0.2-0.1-0.4-0.2-0.9-0.3
				c-0.6-0.1-1.1-0.3-1.4-0.6c-0.3-0.3-0.5-0.6-0.5-1.1c0-0.5,0.2-0.8,0.5-1.1c0.3-0.3,0.8-0.4,1.5-0.4c0.2,0,0.5,0,0.7,0
				c0.2,0,0.4,0.1,0.6,0.1c0.1,0,0.2,0.1,0.2,0.1c0.1,0.1,0.1,0.2,0.1,0.3c0,0,0,0,0,0c0,0,0,0,0,0.1c0,0.1-0.1,0.2-0.2,0.2
				c-0.1,0-0.2,0.1-0.3,0.1h-0.1c0,0-0.1,0-0.1,0c-0.2,0-0.3-0.1-0.5-0.1c-0.2,0-0.3,0-0.5,0c-0.7,0-1.1,0.2-1.1,0.7
				c0,0.2,0.1,0.3,0.3,0.5c0.2,0.1,0.5,0.2,0.8,0.3c0.6,0.1,1.1,0.3,1.4,0.5c0.3,0.2,0.5,0.6,0.5,1.1c0,0.2,0,0.4-0.1,0.6
				c-0.1,0.2-0.2,0.4-0.3,0.5c-0.2,0.1-0.4,0.3-0.6,0.4c-0.2,0.1-0.6,0.1-0.9,0.1C230.3,62.3,230,62.3,229.7,62.3z"/>
		</g>
	</g>
</g>
</svg>
